{"glyphs":{"0":{"ha":764,"x_min":69,"x_max":694,"o":"m 381 921 q 256 886 314 921 q 157 788 199 851 q 93 636 116 725 q 69 441 69 547 q 93 260 69 344 q 157 114 116 176 q 255 17 198 52 q 381 -17 313 -17 q 507 18 449 -17 q 606 115 565 53 q 671 260 648 176 q 694 441 694 344 q 671 635 694 546 q 605 787 647 723 q 506 886 564 851 q 381 921 449 921 m 381 847 q 507 769 455 847 l 218 222 q 193 322 201 267 q 185 441 185 377 q 199 608 185 534 q 239 736 213 683 q 301 818 265 789 q 381 847 337 847 m 381 69 q 267 128 316 69 l 550 675 q 574 568 566 626 q 582 441 582 510 q 568 291 582 359 q 527 173 553 222 q 464 97 501 124 q 381 69 427 69 z "},"1":{"ha":764,"x_min":127,"x_max":649,"o":"m 642 76 l 642 81 l 446 81 l 446 903 l 347 903 q 257 811 314 848 q 127 757 200 773 l 138 660 q 266 692 211 668 q 347 752 321 716 l 347 81 l 147 81 l 147 0 l 649 0 q 643 37 644 17 q 642 76 642 57 z "},"2":{"ha":764,"x_min":93,"x_max":684,"o":"m 547 713 q 501 567 547 644 q 384 410 454 490 q 236 251 315 331 q 93 93 156 170 l 93 0 l 684 0 l 684 93 l 227 93 q 364 249 291 170 q 500 407 438 329 q 604 563 563 486 q 645 714 645 640 q 626 799 645 760 q 572 866 606 838 q 490 909 538 894 q 384 924 442 924 q 125 767 203 924 l 193 721 q 284 811 235 787 q 391 834 333 834 q 508 802 468 834 q 547 713 547 770 z "},"3":{"ha":764,"x_min":108,"x_max":660,"o":"m 157 818 l 219 762 q 247 796 229 782 q 284 818 264 810 q 326 830 304 826 q 367 833 348 833 q 496 792 450 833 q 542 676 542 750 q 490 548 542 593 q 339 503 438 503 l 288 503 l 288 422 l 339 422 q 499 373 442 422 q 556 229 556 323 q 512 112 556 153 q 381 71 468 71 q 315 76 344 71 q 262 95 286 82 q 217 128 237 108 q 176 179 197 149 l 108 133 q 211 20 148 57 q 368 -17 274 -17 q 583 48 507 -17 q 660 230 660 113 q 623 374 660 313 q 524 463 587 436 q 645 676 645 529 q 624 777 645 731 q 568 854 604 822 q 484 904 532 887 q 380 921 435 921 q 313 915 347 921 q 247 895 278 909 q 193 863 216 882 q 157 818 169 844 z "},"4":{"ha":764,"x_min":104,"x_max":638,"o":"m 638 346 l 512 346 l 512 435 q 512 475 512 455 q 519 512 513 494 l 413 512 l 413 346 l 208 346 l 499 903 l 395 903 l 104 346 l 104 253 l 413 253 l 413 0 l 512 0 l 512 253 l 638 253 l 638 346 z "},"5":{"ha":764,"x_min":111,"x_max":648,"o":"m 205 449 l 117 449 l 154 903 l 608 903 l 608 822 l 244 822 l 219 532 q 274 585 235 566 q 373 604 314 604 q 485 583 434 604 q 572 523 536 561 q 628 429 609 484 q 648 309 648 375 q 627 178 648 238 q 569 75 606 118 q 480 7 531 31 q 368 -17 429 -17 q 111 105 234 -17 l 176 169 q 264 98 219 120 q 368 76 310 76 q 503 137 455 76 q 551 309 551 198 q 501 464 551 411 q 355 516 451 516 q 265 498 306 516 q 205 449 225 480 z "},"6":{"ha":764,"x_min":103,"x_max":701,"o":"m 399 76 q 320 93 356 76 q 258 138 284 109 q 216 209 231 168 q 201 299 201 250 l 201 382 q 238 425 215 405 q 289 459 262 444 q 348 481 317 473 q 411 490 380 490 q 489 475 454 490 q 550 433 524 459 q 591 369 576 406 q 605 287 605 331 q 590 204 605 242 q 546 137 574 166 q 481 93 519 109 q 399 76 443 76 m 626 875 q 540 909 590 897 q 438 921 490 921 q 302 895 363 921 q 197 819 241 868 q 128 704 153 771 q 103 556 103 637 l 103 299 q 124 167 103 226 q 183 68 145 109 q 276 5 221 27 q 399 -17 331 -17 q 523 4 468 -17 q 619 65 579 25 q 680 161 659 105 q 701 287 701 218 q 681 406 701 353 q 623 497 661 459 q 532 554 586 534 q 411 574 478 574 q 287 554 343 574 q 201 498 231 534 l 201 556 q 218 668 201 617 q 266 755 235 719 q 339 812 296 792 q 434 832 382 832 q 505 823 469 832 q 567 801 542 815 l 626 875 z "},"7":{"ha":764,"x_min":88,"x_max":676,"o":"m 676 903 l 88 903 l 88 822 l 572 822 q 444 639 512 731 q 321 446 377 546 q 228 235 265 345 q 190 0 191 125 l 300 0 q 336 235 300 125 q 428 446 373 345 q 550 639 484 546 q 676 822 616 731 l 676 903 z "},"8":{"ha":764,"x_min":104,"x_max":660,"o":"m 378 75 q 242 109 287 75 q 197 208 197 144 q 241 336 197 278 q 378 422 285 394 q 461 385 426 409 q 519 334 497 362 q 553 273 542 306 q 564 208 564 241 q 516 109 564 142 q 378 75 469 75 m 382 829 q 484 795 449 829 q 517 701 519 762 q 481 594 516 642 q 382 512 447 545 q 275 594 311 545 q 238 701 238 642 q 277 796 238 763 q 382 829 316 829 m 660 207 q 649 288 660 248 q 613 362 638 328 q 551 424 589 397 q 459 465 513 450 q 523 506 494 480 q 571 565 551 532 q 600 635 590 597 q 610 712 610 672 q 546 866 609 810 q 378 921 484 921 q 209 867 273 921 q 146 712 146 814 q 188 563 146 631 q 304 464 230 495 q 215 422 252 449 q 153 360 177 395 q 116 286 128 325 q 104 206 104 247 q 125 115 104 156 q 182 44 146 73 q 269 -1 219 15 q 378 -17 319 -17 q 491 -2 440 -17 q 580 43 543 14 q 639 113 618 72 q 660 207 660 155 z "},"9":{"ha":764,"x_min":83,"x_max":682,"o":"m 385 826 q 465 810 428 826 q 527 764 501 794 q 568 694 553 735 q 583 604 583 653 l 583 521 q 547 476 569 498 q 497 438 524 455 q 437 411 469 421 q 374 402 405 402 q 296 417 331 402 q 234 460 260 432 q 194 528 208 488 q 179 616 179 567 q 196 699 179 661 q 240 766 212 737 q 305 810 267 794 q 385 826 343 826 m 159 28 q 245 -6 194 6 q 347 -17 295 -17 q 483 9 421 -17 q 589 84 544 36 q 657 199 633 132 q 682 347 682 266 l 682 604 q 661 736 682 677 q 602 835 640 794 q 509 898 564 876 q 385 920 454 920 q 262 899 317 920 q 166 837 206 877 q 105 741 126 797 q 83 616 83 685 q 104 490 83 545 q 161 396 124 434 q 253 337 199 358 q 374 317 307 317 q 498 343 442 317 q 583 405 553 369 l 583 347 q 567 235 583 286 q 519 148 550 184 q 446 91 488 111 q 351 72 403 72 q 280 80 316 72 q 218 102 243 88 l 159 28 z "}," ":{"ha":764,"x_min":0,"x_max":0,"o":""},"!":{"ha":764,"x_min":309,"x_max":454,"o":"m 336 258 l 425 258 l 441 678 l 441 903 l 319 903 l 319 678 l 336 258 m 309 56 q 382 -17 309 -17 q 454 56 454 -17 q 382 127 454 127 q 328 109 347 127 q 309 56 309 90 z "},"\"":{"ha":764,"x_min":204,"x_max":559,"o":"m 204 910 l 204 535 l 269 522 q 280 561 272 529 q 297 635 288 593 q 314 726 306 678 q 326 810 322 773 l 326 903 l 204 910 m 436 910 l 436 535 l 501 522 q 513 561 505 529 q 530 635 521 593 q 546 726 538 678 q 559 810 554 773 l 559 903 l 436 910 z "},"#":{"ha":764,"x_min":93,"x_max":671,"o":"m 279 308 l 316 596 l 477 596 l 439 308 l 279 308 m 569 596 l 671 596 l 671 679 l 582 679 l 616 902 l 522 902 l 490 679 l 330 679 l 362 902 l 269 902 l 236 679 l 135 679 l 135 596 l 223 596 l 185 308 l 93 308 l 93 227 l 175 227 l 141 0 l 235 0 l 269 227 l 428 227 l 395 0 l 488 0 l 521 227 l 628 227 l 628 308 l 532 308 l 569 596 z "},"$":{"ha":764,"x_min":95,"x_max":668,"o":"m 574 236 q 532 123 572 161 q 422 74 493 84 l 422 403 q 536 352 497 388 q 574 236 576 316 m 193 681 q 227 775 193 740 q 324 824 262 811 l 324 528 q 193 681 193 576 m 668 245 q 653 347 668 304 q 607 419 638 389 q 531 469 576 449 q 422 501 485 488 l 422 828 q 499 803 465 823 q 569 741 532 782 l 634 802 q 547 879 603 850 q 422 918 492 909 l 422 972 l 324 972 l 324 917 q 233 889 274 910 q 163 837 192 868 q 117 764 133 806 q 101 676 101 723 q 161 520 101 583 q 324 425 221 457 l 324 73 q 163 161 216 84 l 95 97 q 130 56 106 75 q 183 21 153 36 q 249 -4 213 6 q 324 -16 286 -14 l 324 -88 l 422 -88 l 422 -13 q 602 65 536 1 q 668 245 668 128 z "},"%":{"ha":764,"x_min":44,"x_max":729,"o":"m 211 586 q 277 599 247 586 q 330 635 308 612 q 366 689 353 657 q 378 757 378 721 q 332 876 378 830 q 211 921 285 921 q 90 876 137 921 q 44 757 44 830 q 57 689 44 720 q 91 634 69 657 q 144 598 113 611 q 211 586 175 586 m 700 877 l 628 921 l 72 28 l 142 -17 l 700 877 m 211 652 q 147 676 167 652 q 127 757 127 700 q 146 838 127 815 q 211 861 166 861 q 278 837 258 861 q 297 757 297 814 q 278 676 297 700 q 211 652 258 652 m 561 -15 q 628 -2 597 -15 q 681 34 659 12 q 716 89 704 57 q 729 156 729 120 q 682 275 729 229 q 561 321 635 321 q 441 275 487 321 q 395 156 395 229 q 407 88 395 119 q 442 34 420 57 q 495 -2 464 10 q 561 -15 525 -15 m 561 51 q 498 75 517 51 q 478 156 478 100 q 497 237 478 214 q 561 260 516 260 q 628 237 609 260 q 648 156 648 213 q 628 75 648 100 q 561 51 609 51 z "},"&":{"ha":764,"x_min":42,"x_max":734,"o":"m 331 73 q 262 89 296 73 q 202 132 228 105 q 160 193 176 159 q 144 264 144 227 q 263 447 144 366 q 362 328 304 395 q 495 174 419 262 q 416 99 457 125 q 331 73 375 73 m 734 36 q 666 113 698 76 q 603 184 633 150 q 675 332 642 250 l 612 403 q 580 321 596 359 q 545 250 564 282 q 413 401 468 338 q 321 509 358 464 q 263 583 284 553 q 231 633 242 612 q 218 670 221 654 q 215 703 215 685 q 225 752 215 728 q 250 793 234 775 q 288 822 266 811 q 333 832 309 832 q 420 811 378 832 q 485 752 461 789 l 545 810 q 337 922 485 922 q 175 864 235 922 q 117 705 116 806 q 121 670 117 688 q 135 631 125 653 q 163 581 145 609 q 208 516 181 553 q 42 264 42 411 q 65 159 42 209 q 128 71 89 109 q 219 9 168 32 q 326 -14 271 -14 q 445 17 389 -14 q 551 109 501 49 l 648 -1 l 734 36 z "},"'":{"ha":764,"x_min":315,"x_max":438,"o":"m 315 910 l 315 535 l 380 522 q 391 561 383 529 q 408 635 399 593 q 425 726 417 678 q 438 810 433 773 l 438 903 l 315 910 z "},"(":{"ha":764,"x_min":216,"x_max":551,"o":"m 332 339 q 344 479 332 414 q 381 605 355 544 q 449 726 407 666 q 551 850 491 786 l 492 910 q 367 775 419 843 q 281 639 315 708 q 232 495 248 569 q 216 339 216 421 q 232 183 216 257 q 281 39 248 109 q 367 -97 315 -30 q 492 -231 419 -164 l 551 -171 q 449 -48 491 -108 q 381 72 407 12 q 344 198 355 133 q 332 339 332 264 z "},")":{"ha":764,"x_min":213,"x_max":547,"o":"m 432 339 q 420 198 432 264 q 383 72 409 133 q 315 -48 356 12 q 213 -171 273 -108 l 272 -231 q 397 -97 345 -164 q 483 39 449 -30 q 532 183 516 109 q 547 339 547 257 q 532 495 547 421 q 483 639 516 569 q 397 775 449 708 q 272 910 345 843 l 213 850 q 315 726 273 786 q 383 605 356 666 q 420 479 409 544 q 432 339 432 414 z "},"*":{"ha":764,"x_min":135,"x_max":620,"o":"m 297 646 l 178 513 l 251 457 l 362 558 l 486 443 l 558 487 l 436 635 l 620 704 l 586 778 l 421 737 l 425 917 l 340 922 l 325 748 l 181 803 l 135 734 l 297 646 z "},"+":{"ha":764,"x_min":154,"x_max":609,"o":"m 609 404 l 426 404 l 426 584 l 333 584 l 333 404 l 154 404 l 154 311 l 333 311 l 333 131 l 426 131 l 426 311 l 609 311 l 609 404 z "},",":{"ha":764,"x_min":250,"x_max":454,"o":"m 454 56 q 382 127 454 127 q 328 109 347 127 q 309 56 309 90 q 325 5 309 23 q 304 -46 316 -20 q 282 -95 293 -73 q 262 -135 271 -118 q 250 -157 253 -152 l 306 -185 q 348 -144 323 -175 q 396 -77 373 -113 q 437 -4 420 -41 q 454 56 454 32 z "},"-":{"ha":764,"x_min":156,"x_max":609,"o":"m 609 301 l 609 394 l 156 394 l 156 301 l 609 301 z "},".":{"ha":764,"x_min":309,"x_max":454,"o":"m 309 56 q 382 -17 309 -17 q 454 56 454 -17 q 382 127 454 127 q 328 109 347 127 q 309 56 309 90 z "},"/":{"ha":764,"x_min":83,"x_max":682,"o":"m 682 929 l 610 973 l 83 -113 l 154 -159 l 682 929 z "},":":{"ha":764,"x_min":309,"x_max":454,"o":"m 309 530 q 382 457 309 457 q 454 530 454 457 q 382 602 454 602 q 328 583 347 602 q 309 530 309 565 m 309 90 q 382 17 309 17 q 454 90 454 17 q 382 162 454 162 q 328 144 347 162 q 309 90 309 125 z "},";":{"ha":764,"x_min":250,"x_max":454,"o":"m 382 457 q 454 530 454 457 q 382 602 454 602 q 328 583 347 602 q 309 530 309 565 q 382 457 309 457 m 382 162 q 328 144 347 162 q 309 90 309 125 q 325 39 309 58 q 304 -12 316 15 q 282 -61 293 -38 q 262 -100 271 -83 q 250 -123 253 -117 l 306 -150 q 348 -109 323 -140 q 396 -42 373 -79 q 437 31 420 -6 q 454 90 454 67 q 382 162 454 162 z "},"<":{"ha":764,"x_min":135,"x_max":619,"o":"m 135 416 l 135 310 l 578 35 l 619 125 l 231 362 l 619 598 l 581 691 l 135 416 z "},"=":{"ha":764,"x_min":148,"x_max":615,"o":"m 608 431 l 615 523 l 155 523 l 148 431 l 608 431 m 608 191 l 615 284 l 155 284 l 148 191 l 608 191 z "},">":{"ha":764,"x_min":145,"x_max":628,"o":"m 628 416 l 183 691 l 145 598 l 532 362 l 145 125 l 186 35 l 628 310 l 628 416 z "},"?":{"ha":764,"x_min":112,"x_max":652,"o":"m 375 926 q 212 895 284 926 q 112 808 140 865 l 171 736 q 209 781 185 763 q 261 813 233 800 q 320 831 289 825 q 378 837 351 837 q 510 805 468 837 q 553 703 553 773 q 534 620 553 652 q 486 563 515 588 q 423 516 457 538 q 360 461 389 493 q 311 383 331 429 q 291 262 292 336 l 397 262 q 416 364 397 324 q 464 432 435 404 q 525 484 492 461 q 586 535 558 507 q 633 603 615 564 q 652 703 652 642 q 632 803 652 760 q 576 872 612 845 q 489 913 541 899 q 375 926 438 926 m 271 56 q 344 -17 271 -17 q 416 56 416 -17 q 344 127 416 127 q 290 109 309 127 q 271 56 271 90 z "},"@":{"ha":764,"x_min":73,"x_max":691,"o":"m 495 76 q 393 128 429 76 q 356 275 356 181 q 391 409 356 363 q 493 455 426 455 q 551 441 529 455 q 593 394 573 427 l 593 130 q 549 89 572 101 q 495 76 525 76 m 394 921 q 241 881 303 921 q 142 761 179 841 q 89 561 105 681 q 73 281 73 441 q 79 131 73 209 q 108 -19 86 53 q 173 -152 131 -91 q 286 -250 215 -213 l 365 -189 q 337 -171 348 -181 q 299 -139 326 -162 q 203 6 235 -87 q 171 256 171 100 q 183 530 171 419 q 223 707 196 640 q 292 803 250 774 q 394 832 334 832 q 593 544 593 832 l 593 475 q 535 524 564 509 q 470 539 507 539 q 317 469 373 539 q 260 275 260 398 q 276 158 260 212 q 320 65 292 104 q 387 4 348 25 q 472 -17 426 -17 q 593 39 541 -17 l 593 0 l 691 0 l 691 544 q 616 822 691 722 q 394 921 542 921 z "},"A":{"ha":764,"x_min":67,"x_max":697,"o":"m 368 749 l 383 749 l 502 336 l 256 336 l 368 749 m 697 0 l 442 903 l 304 903 l 67 0 l 166 0 l 235 255 l 525 255 l 598 0 l 697 0 z "},"B":{"ha":764,"x_min":104,"x_max":660,"o":"m 203 98 l 203 443 l 365 443 q 566 275 566 443 q 517 144 566 190 q 376 98 468 98 l 203 98 m 307 804 q 451 775 406 804 q 497 677 497 747 q 454 574 497 606 q 307 542 411 542 l 203 542 l 203 804 l 307 804 m 500 509 q 569 573 549 532 q 590 677 590 613 q 520 848 590 794 q 307 903 450 903 l 104 903 l 104 0 l 376 0 q 493 20 441 0 q 582 75 545 39 q 639 162 619 111 q 660 275 660 213 q 619 422 660 362 q 500 509 579 481 z "},"C":{"ha":764,"x_min":60,"x_max":692,"o":"m 580 207 q 557 157 575 182 q 510 115 538 133 q 449 86 483 97 q 381 75 416 75 q 225 168 279 75 q 170 436 170 262 q 185 598 170 525 q 227 722 200 671 q 293 801 255 773 q 381 829 332 829 q 438 818 410 829 q 490 790 466 808 q 531 748 513 772 q 557 696 549 723 l 666 727 q 625 803 654 767 q 557 864 596 838 q 473 906 519 890 q 381 921 427 921 q 252 885 310 921 q 150 785 193 850 q 84 632 108 721 q 60 436 60 543 q 82 249 60 333 q 144 106 103 166 q 245 15 185 47 q 381 -17 304 -17 q 487 -1 435 -17 q 582 45 539 16 q 655 112 625 74 q 692 192 684 150 l 580 207 z "},"D":{"ha":764,"x_min":98,"x_max":677,"o":"m 313 903 q 480 878 411 903 q 593 799 550 853 q 657 660 637 745 q 677 455 677 575 q 394 0 677 0 l 98 0 l 98 903 l 313 903 m 394 98 q 534 189 486 98 q 581 455 581 279 q 530 717 581 634 q 370 800 479 800 l 197 800 l 197 98 l 394 98 z "},"E":{"ha":764,"x_min":127,"x_max":631,"o":"m 226 98 l 631 98 l 631 0 l 127 0 l 127 903 l 631 903 l 631 804 l 226 804 l 226 524 l 561 524 l 561 426 l 226 426 l 226 98 z "},"F":{"ha":764,"x_min":139,"x_max":642,"o":"m 573 361 l 573 459 l 237 459 l 237 804 l 642 804 l 642 903 l 139 903 l 139 0 l 237 0 l 237 361 l 573 361 z "},"G":{"ha":764,"x_min":60,"x_max":692,"o":"m 692 324 l 692 405 l 390 405 l 390 324 l 602 324 q 540 142 600 208 q 381 75 480 75 q 223 167 277 75 q 170 436 170 258 q 233 728 170 627 q 416 829 296 829 q 462 823 441 829 q 505 806 484 818 q 547 773 525 793 q 596 721 569 752 l 678 788 q 546 890 608 859 q 416 921 484 921 q 269 887 334 921 q 156 790 203 853 q 85 637 110 727 q 60 436 60 547 q 143 100 60 218 q 381 -17 226 -17 q 509 7 451 -17 q 607 76 566 31 q 670 183 648 120 q 692 324 692 247 z "},"H":{"ha":764,"x_min":91,"x_max":675,"o":"m 675 0 q 668 37 669 17 q 668 76 668 57 l 668 903 l 569 903 l 569 475 l 190 475 l 190 903 l 91 903 l 91 0 l 190 0 l 190 394 l 569 394 l 569 0 l 675 0 z "},"I":{"ha":764,"x_min":132,"x_max":634,"o":"m 627 76 l 627 81 l 431 81 l 431 822 l 591 822 l 591 903 l 162 903 l 162 822 l 332 822 l 332 81 l 132 81 l 132 0 l 634 0 q 628 37 628 17 q 627 76 627 57 z "},"J":{"ha":764,"x_min":96,"x_max":666,"o":"m 657 903 l 657 904 l 171 904 l 171 815 l 560 815 l 560 191 q 385 72 560 72 q 155 161 231 72 l 96 89 q 144 45 115 65 q 211 12 174 25 q 293 -10 249 -2 q 382 -17 337 -17 q 496 -2 444 -17 q 583 40 547 13 q 639 105 619 67 q 659 191 659 144 l 659 826 q 659 866 659 846 q 666 903 660 885 l 657 903 z "},"K":{"ha":764,"x_min":104,"x_max":716,"o":"m 716 0 l 307 440 l 683 904 l 552 903 l 203 477 l 203 903 l 104 904 l 104 0 l 203 0 l 203 310 l 240 356 l 569 0 l 716 0 z "},"L":{"ha":764,"x_min":124,"x_max":642,"o":"m 642 0 l 642 81 l 222 81 l 222 903 l 124 903 l 124 0 l 642 0 z "},"M":{"ha":764,"x_min":67,"x_max":697,"o":"m 598 719 q 557 604 579 661 q 514 496 535 547 q 473 399 493 444 q 436 319 453 354 l 337 319 q 303 395 324 351 q 259 492 282 440 q 211 604 235 545 q 166 719 186 662 l 166 0 l 67 0 l 67 903 l 168 903 q 220 775 191 844 q 279 641 249 706 q 336 520 309 575 q 382 431 363 464 q 425 520 399 464 q 480 641 451 575 q 538 775 509 706 q 588 903 566 844 l 697 903 l 697 0 l 598 0 l 598 719 z "},"N":{"ha":764,"x_min":102,"x_max":662,"o":"m 564 0 l 200 684 l 200 0 l 102 0 l 102 903 l 203 903 l 564 236 l 564 903 l 662 903 l 662 0 l 564 0 z "},"O":{"ha":764,"x_min":64,"x_max":700,"o":"m 381 -17 q 516 14 456 -17 q 616 105 575 45 q 679 253 657 166 q 700 453 700 340 q 678 649 700 563 q 615 797 656 736 q 515 889 574 858 q 381 921 456 921 q 145 801 226 921 q 64 453 64 681 q 146 103 64 223 q 381 -17 228 -17 m 381 76 q 229 166 279 76 q 179 453 179 255 q 230 744 179 652 q 381 838 281 837 q 473 817 434 838 q 538 749 513 795 q 576 629 564 703 q 588 453 588 556 q 538 164 588 252 q 381 76 487 76 z "},"P":{"ha":764,"x_min":110,"x_max":666,"o":"m 382 804 q 523 759 473 804 q 572 627 572 713 q 370 459 572 459 l 208 459 l 208 804 l 382 804 m 208 361 l 313 361 q 458 376 392 361 q 569 421 523 390 q 640 503 615 453 q 666 627 666 554 q 645 741 666 690 q 588 828 625 792 q 499 883 551 863 q 382 903 447 903 l 110 903 l 110 0 l 208 0 l 208 361 z "},"Q":{"ha":764,"x_min":64,"x_max":700,"o":"m 700 453 q 678 649 700 563 q 615 797 656 736 q 515 889 574 858 q 381 921 456 921 q 145 801 226 921 q 64 453 64 681 q 132 125 64 244 q 330 -14 200 6 l 330 -168 l 434 -168 l 434 -13 q 631 128 561 8 q 700 453 700 248 m 434 82 l 434 307 l 330 307 l 330 82 q 216 191 253 102 q 179 453 179 280 q 230 744 179 652 q 381 838 281 837 q 473 817 434 838 q 538 749 513 795 q 576 629 564 703 q 588 453 588 556 q 550 190 588 279 q 434 82 513 102 z "},"R":{"ha":764,"x_min":104,"x_max":678,"o":"m 203 804 l 376 804 q 517 759 468 804 q 566 627 566 713 q 365 459 566 459 l 203 459 l 203 804 m 678 0 q 657 68 678 24 q 606 164 637 111 q 541 273 576 216 q 477 382 506 330 q 612 466 564 407 q 660 627 660 524 q 639 741 660 690 q 582 828 619 792 q 493 883 545 863 q 376 903 441 903 l 104 903 l 104 0 l 203 0 l 203 361 l 307 361 q 339 362 323 361 q 370 363 355 362 q 434 259 400 314 q 496 154 468 204 q 543 64 524 104 q 563 0 563 23 l 678 0 z "},"S":{"ha":764,"x_min":95,"x_max":668,"o":"m 411 503 q 193 681 193 546 q 244 791 193 752 q 387 830 294 830 q 439 825 416 830 q 484 810 463 821 q 527 783 506 800 q 569 741 547 766 l 634 802 q 528 889 597 858 q 374 920 458 920 q 264 902 314 920 q 178 852 214 884 q 121 774 141 819 q 101 676 101 729 q 122 578 101 623 q 183 499 144 534 q 277 442 222 465 q 399 407 332 419 q 474 389 441 400 q 530 358 507 377 q 564 308 552 338 q 574 236 575 279 q 517 109 573 147 q 365 71 461 71 q 163 161 226 71 l 95 97 q 134 52 108 73 q 194 15 160 30 q 270 -9 229 0 q 353 -17 310 -17 q 483 -1 425 -17 q 582 47 541 15 q 645 130 623 80 q 668 245 668 179 q 652 348 668 306 q 605 422 637 391 q 524 472 573 453 q 411 503 476 491 z "},"T":{"ha":764,"x_min":88,"x_max":676,"o":"m 676 903 l 676 822 l 427 822 l 427 0 l 329 0 l 329 822 l 88 822 l 88 903 l 676 903 z "},"U":{"ha":764,"x_min":94,"x_max":670,"o":"m 572 242 l 572 903 l 670 903 l 670 242 q 652 136 670 184 q 598 54 634 88 q 509 1 563 20 q 385 -17 456 -17 q 259 1 314 -17 q 167 54 204 20 q 112 136 131 88 q 94 242 94 184 l 94 903 l 192 903 l 192 242 q 207 165 192 198 q 247 109 221 132 q 308 75 273 87 q 385 64 344 64 q 519 109 466 64 q 572 242 572 154 z "},"V":{"ha":764,"x_min":46,"x_max":719,"o":"m 615 903 l 375 154 l 150 903 l 46 903 l 324 0 l 422 0 l 719 903 l 615 903 z "},"W":{"ha":764,"x_min":52,"x_max":711,"o":"m 612 903 q 608 730 612 832 q 594 523 603 628 q 572 321 586 418 q 542 161 559 223 q 476 347 509 251 q 426 532 442 442 l 326 532 q 276 347 308 442 q 211 161 244 251 q 183 321 194 223 q 164 523 171 418 q 154 730 157 628 q 150 903 150 832 l 52 903 q 57 768 53 843 q 67 611 60 693 q 82 444 73 529 q 101 278 90 359 q 123 127 111 198 q 149 0 135 56 l 243 0 q 281 98 262 46 q 318 201 300 149 q 352 305 337 253 q 376 403 367 356 q 399 305 385 356 q 430 201 413 253 q 465 98 447 149 q 501 0 484 46 l 595 0 q 624 127 610 56 q 652 278 639 198 q 676 444 666 359 q 694 611 686 529 q 707 768 703 693 q 711 903 711 843 l 612 903 z "},"X":{"ha":764,"x_min":72,"x_max":692,"o":"m 692 903 l 591 903 l 383 541 l 184 903 l 79 903 l 328 444 l 72 0 l 178 0 l 378 351 l 568 0 l 678 0 l 433 448 l 692 903 z "},"Y":{"ha":764,"x_min":34,"x_max":729,"o":"m 625 903 l 374 490 l 138 903 l 34 903 l 323 375 l 323 0 l 421 0 l 421 375 l 729 903 l 625 903 z "},"Z":{"ha":764,"x_min":73,"x_max":691,"o":"m 199 93 l 398 398 l 625 398 l 625 487 l 457 487 l 668 810 l 668 903 l 108 903 l 108 810 l 543 810 l 331 487 l 139 487 l 139 398 l 273 398 l 73 93 l 73 0 l 691 0 l 691 93 l 199 93 z "},"[":{"ha":764,"x_min":243,"x_max":545,"o":"m 243 903 l 243 -231 l 545 -231 l 545 -141 l 348 -141 l 348 811 l 545 811 l 545 903 l 243 903 z "},"\\":{"ha":764,"x_min":82,"x_max":681,"o":"m 82 929 l 610 -159 l 681 -113 l 154 973 l 82 929 z "},"]":{"ha":764,"x_min":219,"x_max":521,"o":"m 521 903 l 219 903 l 219 811 l 416 811 l 416 -141 l 219 -141 l 219 -231 l 521 -231 l 521 903 z "},"^":{"ha":764,"x_min":124,"x_max":639,"o":"m 535 660 l 639 660 l 421 961 l 323 961 l 124 660 l 228 660 l 374 841 l 535 660 z "},"_":{"ha":764,"x_min":29,"x_max":736,"o":"m 736 -231 l 736 -150 l 29 -150 l 29 -231 l 736 -231 z "},"`":{"ha":694,"x_min":222,"x_max":541,"o":"m 222 927 l 506 766 l 541 826 l 275 1014 l 222 927 z "},"a":{"ha":764,"x_min":93,"x_max":659,"o":"m 337 67 q 236 94 278 67 q 193 171 193 120 q 264 259 193 233 q 486 285 334 285 q 522 285 503 285 q 560 284 541 285 l 560 177 q 458 94 520 122 q 337 67 396 67 m 359 678 q 221 649 286 678 q 108 567 156 620 l 167 495 q 270 569 222 550 q 362 589 318 589 q 443 573 406 589 q 505 530 479 558 q 546 464 531 502 q 560 377 560 425 l 560 369 q 524 371 542 370 q 491 372 507 372 q 93 171 93 372 q 113 90 93 125 q 168 32 133 56 q 252 -4 204 8 q 354 -16 300 -16 q 479 11 424 -15 q 560 81 535 37 q 552 35 560 58 q 535 0 543 12 l 659 0 l 659 377 q 637 499 659 443 q 575 594 615 554 q 480 656 535 634 q 359 678 425 678 z "},"b":{"ha":764,"x_min":100,"x_max":689,"o":"m 384 78 q 266 102 310 78 q 198 179 221 126 l 198 461 q 282 557 230 523 q 396 591 333 591 q 476 574 440 591 q 537 525 512 557 q 576 448 563 493 q 590 348 590 404 q 575 240 590 289 q 532 154 560 190 q 467 98 505 118 q 384 78 429 78 m 396 678 q 282 654 330 678 q 198 576 235 630 l 198 903 l 100 910 l 100 0 l 223 0 q 212 19 218 7 q 204 45 207 31 q 285 -1 240 15 q 384 -16 331 -16 q 509 10 453 -16 q 605 84 565 36 q 667 199 645 132 q 689 348 689 266 q 612 592 689 506 q 396 678 536 678 z "},"c":{"ha":764,"x_min":83,"x_max":670,"o":"m 557 207 q 499 108 544 141 q 381 75 454 75 q 241 134 288 75 q 193 309 193 193 q 238 512 193 438 q 381 586 284 586 q 486 554 439 586 q 550 465 532 523 l 659 497 q 619 571 646 537 q 554 628 591 604 q 473 665 517 652 q 381 678 428 678 q 250 650 306 678 q 157 572 194 622 q 102 455 120 523 q 83 309 83 388 q 160 69 83 154 q 381 -16 237 -16 q 486 -2 438 -16 q 572 40 535 13 q 635 105 610 67 q 670 191 661 144 l 557 207 z "},"d":{"ha":764,"x_min":78,"x_max":674,"o":"m 382 78 q 299 98 337 78 q 234 154 262 118 q 191 240 206 190 q 176 348 176 289 q 190 448 176 404 q 229 525 204 493 q 291 574 255 557 q 370 591 326 591 q 484 557 433 591 q 568 461 536 523 l 568 179 q 501 102 545 126 q 382 78 456 78 m 674 0 q 667 37 668 17 q 667 76 667 57 l 667 903 l 568 910 l 568 576 q 484 654 531 630 q 370 678 436 678 q 154 592 230 678 q 78 348 78 506 q 100 199 78 266 q 161 84 122 132 q 258 10 201 36 q 382 -16 314 -16 q 568 50 493 -16 l 568 0 l 674 0 z "},"e":{"ha":764,"x_min":93,"x_max":669,"o":"m 192 372 q 239 532 197 473 q 376 591 281 591 q 519 535 473 591 q 558 372 564 478 l 192 372 m 387 678 q 171 590 244 678 q 93 341 97 502 l 93 282 q 115 161 93 216 q 177 67 137 106 q 271 5 216 27 q 392 -17 326 -17 q 530 12 465 -17 q 644 94 595 41 l 584 166 q 481 91 529 111 q 389 72 433 72 q 308 87 345 72 q 246 131 272 103 q 205 197 220 159 q 191 282 191 236 l 661 285 l 663 341 q 598 591 669 503 q 387 678 528 678 z "},"f":{"ha":764,"x_min":134,"x_max":714,"o":"m 488 824 q 567 802 529 824 q 626 728 604 779 l 714 767 q 616 885 677 850 q 490 921 554 921 q 405 905 446 921 q 331 858 363 889 q 280 781 299 826 q 260 678 260 736 l 260 372 l 134 372 l 134 282 l 260 282 l 260 -231 l 359 -238 l 359 282 l 620 282 l 620 372 l 359 372 l 359 678 q 370 742 359 715 q 399 788 381 770 q 440 815 417 807 q 488 824 463 824 z "},"g":{"ha":764,"x_min":60,"x_max":666,"o":"m 362 157 q 282 175 319 157 q 216 222 244 192 q 172 293 189 252 q 156 380 156 333 q 172 464 156 425 q 216 532 189 503 q 282 577 244 560 q 362 594 319 594 q 476 560 425 594 q 560 463 528 525 l 560 269 q 480 187 532 216 q 362 157 428 157 m 560 579 q 362 678 490 678 q 237 657 293 678 q 142 597 182 637 q 82 503 103 558 q 60 380 60 448 q 82 252 60 310 q 144 152 104 193 q 240 87 184 110 q 362 64 295 64 q 463 83 412 64 q 560 139 514 102 l 560 0 q 385 -119 560 -119 q 155 -30 231 -119 l 96 -102 q 144 -146 115 -126 q 211 -179 174 -166 q 293 -201 249 -193 q 382 -208 337 -208 q 496 -193 444 -208 q 583 -151 547 -178 q 639 -86 619 -124 q 659 0 659 -47 l 659 583 q 659 623 659 603 q 666 660 660 642 l 560 660 l 560 579 z "},"h":{"ha":764,"x_min":115,"x_max":660,"o":"m 653 76 l 653 344 q 639 465 653 405 q 597 573 626 525 q 522 649 567 620 q 412 678 477 678 q 351 671 382 678 q 294 652 321 664 q 246 622 267 639 q 213 582 225 604 l 213 903 l 115 910 l 115 0 l 213 0 l 213 477 q 269 550 235 521 q 363 580 303 580 q 442 563 407 580 q 499 518 476 546 q 535 451 523 490 q 547 368 547 412 l 547 0 l 660 0 q 653 37 654 17 q 653 76 653 57 z "},"i":{"ha":764,"x_min":138,"x_max":640,"o":"m 373 777 q 444 850 444 777 q 373 921 444 921 q 319 903 338 921 q 300 850 300 884 q 373 777 300 777 m 633 76 l 633 81 l 431 81 l 432 660 l 201 660 l 201 587 l 337 579 l 337 81 l 138 81 l 138 0 l 640 0 q 634 37 634 17 q 633 76 633 57 z "},"j":{"ha":764,"x_min":103,"x_max":571,"o":"m 499 777 q 571 850 571 777 q 499 921 571 921 q 445 903 464 921 q 426 850 426 884 q 499 777 426 777 m 323 660 l 323 587 l 458 579 l 458 0 q 447 -64 458 -37 q 418 -110 436 -91 q 377 -137 400 -128 q 329 -146 354 -146 q 251 -123 288 -146 q 191 -50 213 -101 l 103 -89 q 201 -207 140 -171 q 328 -243 263 -243 q 413 -227 372 -243 q 486 -179 454 -211 q 538 -103 519 -148 q 557 0 557 -58 l 558 660 l 323 660 z "},"k":{"ha":764,"x_min":132,"x_max":721,"o":"m 721 0 l 345 362 l 678 649 l 536 660 l 230 396 l 230 903 l 132 910 l 132 0 l 230 0 l 230 264 l 262 292 l 563 0 l 721 0 z "},"l":{"ha":764,"x_min":133,"x_max":635,"o":"m 628 76 l 628 81 l 432 81 l 432 903 l 198 903 l 198 830 l 333 822 l 333 81 l 133 81 l 133 0 l 635 0 q 629 37 630 17 q 628 76 628 57 z "},"m":{"ha":764,"x_min":83,"x_max":691,"o":"m 547 678 q 465 655 491 678 q 419 580 439 631 l 419 574 q 372 650 403 622 q 293 678 341 678 q 226 661 251 678 q 182 601 201 644 l 182 660 l 83 660 l 83 0 l 189 0 q 182 37 183 17 q 182 76 182 57 l 182 495 q 221 559 203 538 q 266 580 240 580 q 323 552 303 580 q 343 486 343 524 l 343 0 l 436 0 l 436 462 q 436 480 436 471 q 435 498 436 488 q 478 571 458 550 q 521 591 498 591 q 578 564 558 591 q 597 498 597 536 l 597 0 l 691 0 l 691 473 q 685 555 691 517 q 663 620 679 593 q 619 663 647 647 q 547 678 591 678 z "},"n":{"ha":764,"x_min":118,"x_max":663,"o":"m 656 344 q 643 465 656 405 q 600 573 630 525 q 525 649 571 620 q 416 678 480 678 q 355 671 385 678 q 297 652 324 664 q 249 622 271 639 q 216 582 228 604 q 226 627 218 604 q 242 660 234 649 l 118 660 l 118 0 l 216 0 l 216 477 q 273 550 238 521 q 367 580 307 580 q 445 563 411 580 q 503 518 479 546 q 539 451 527 490 q 551 368 551 412 l 551 0 l 663 0 q 657 37 657 17 q 656 76 656 57 l 656 344 z "},"o":{"ha":764,"x_min":78,"x_max":686,"o":"m 381 -17 q 506 8 450 -17 q 602 80 563 34 q 664 192 642 126 q 686 337 686 257 q 665 477 686 414 q 604 585 644 541 q 507 654 564 630 q 381 678 450 678 q 255 655 311 678 q 160 587 199 631 q 99 479 120 543 q 78 337 78 416 q 99 190 78 256 q 160 79 120 125 q 256 8 200 32 q 381 -17 311 -17 m 381 67 q 243 139 293 67 q 193 337 193 211 q 243 529 193 462 q 381 597 293 596 q 523 531 472 598 q 574 337 574 464 q 523 138 574 208 q 381 67 472 67 z "},"p":{"ha":764,"x_min":93,"x_max":682,"o":"m 377 78 q 259 102 303 78 q 191 179 214 126 l 191 461 q 275 557 223 523 q 389 591 326 591 q 469 574 433 591 q 530 525 505 557 q 569 448 556 493 q 583 348 583 404 q 568 240 583 289 q 525 154 553 190 q 460 98 498 118 q 377 78 422 78 m 389 678 q 275 654 323 678 q 191 576 228 630 l 191 579 q 200 625 191 602 q 216 660 208 648 l 93 660 l 93 -238 l 191 -231 l 191 50 q 377 -16 266 -16 q 502 10 446 -16 q 598 84 558 36 q 660 199 638 132 q 682 348 682 266 q 605 592 682 506 q 389 678 529 678 z "},"q":{"ha":764,"x_min":80,"x_max":676,"o":"m 571 179 q 503 102 547 126 q 384 78 458 78 q 302 98 339 78 q 236 154 264 118 q 193 240 208 190 q 178 348 178 289 q 192 448 178 404 q 231 525 206 493 q 293 574 257 557 q 373 591 329 591 q 487 557 435 591 q 571 461 538 523 l 571 179 m 571 576 q 486 654 534 630 q 373 678 439 678 q 156 592 233 678 q 80 348 80 506 q 102 199 80 266 q 164 84 124 132 q 260 10 204 36 q 384 -16 316 -16 q 571 50 495 -16 l 571 -238 l 669 -231 l 669 583 q 670 623 669 603 q 676 660 670 642 l 571 660 l 571 576 z "},"r":{"ha":764,"x_min":90,"x_max":712,"o":"m 650 551 l 712 647 q 664 664 684 657 q 630 674 645 670 q 605 678 616 677 q 586 678 595 678 q 539 675 567 678 q 483 663 512 672 q 428 635 455 654 q 384 582 402 616 q 386 599 384 588 q 391 622 388 610 q 396 645 394 634 q 403 660 399 655 l 160 660 l 160 587 l 295 579 l 295 81 l 90 81 l 90 0 l 593 0 q 586 37 587 17 q 586 76 586 57 l 586 81 l 390 81 l 390 459 q 447 545 403 513 q 551 578 492 578 q 650 551 602 578 z "},"s":{"ha":764,"x_min":116,"x_max":655,"o":"m 421 377 q 281 420 325 396 q 236 485 236 444 q 285 559 236 530 q 410 588 333 588 q 504 570 464 588 q 584 508 544 552 l 647 571 q 546 650 610 623 q 399 678 483 678 q 295 664 341 678 q 214 624 248 650 q 162 563 181 598 q 144 483 144 527 q 207 358 144 405 q 413 281 270 310 q 531 245 499 264 q 563 193 563 227 q 549 146 563 169 q 512 107 535 124 q 458 80 488 90 q 394 71 427 71 q 282 101 334 71 q 182 189 230 132 l 116 122 q 236 17 168 52 q 392 -17 303 -17 q 501 -2 453 -17 q 584 42 550 14 q 637 109 618 71 q 655 194 655 148 q 601 312 655 270 q 421 377 546 354 z "},"t":{"ha":764,"x_min":116,"x_max":676,"o":"m 588 176 q 528 102 566 125 q 450 80 491 80 q 402 89 425 80 q 361 116 378 97 q 332 161 343 134 q 321 226 321 189 l 321 571 l 602 571 l 602 660 l 321 660 l 321 903 l 222 910 l 222 660 l 116 660 l 116 571 l 222 571 l 222 226 q 241 123 222 168 q 293 46 260 78 q 366 -1 325 15 q 451 -17 407 -17 q 578 19 516 -17 q 676 137 639 54 l 588 176 z "},"u":{"ha":764,"x_min":100,"x_max":646,"o":"m 646 0 q 639 37 640 17 q 639 76 639 57 l 639 660 l 541 660 l 541 193 q 506 140 522 163 q 473 101 491 117 q 436 78 456 86 q 389 69 416 69 q 314 87 348 69 q 256 134 280 104 q 218 201 231 163 q 205 281 205 240 l 205 661 l 100 661 l 100 306 q 117 181 100 240 q 168 79 135 123 q 245 9 200 35 q 343 -17 289 -17 q 459 13 405 -17 q 541 95 514 43 l 541 0 l 646 0 z "},"v":{"ha":764,"x_min":89,"x_max":674,"o":"m 569 660 l 374 154 l 193 660 l 89 660 l 323 0 l 421 0 l 674 660 l 569 660 z "},"w":{"ha":764,"x_min":64,"x_max":699,"o":"m 601 678 q 579 411 601 536 q 523 161 558 286 q 468 329 491 251 q 431 498 446 407 l 331 498 q 289 329 315 407 q 229 161 263 251 q 179 411 197 287 q 162 678 162 535 l 64 678 q 97 332 66 499 q 168 0 127 166 l 262 0 q 328 173 299 93 q 376 345 358 253 q 421 173 394 253 q 483 0 448 93 l 576 0 q 622 165 600 82 q 661 332 644 248 q 689 502 678 416 q 699 678 699 588 l 601 678 z "},"x":{"ha":764,"x_min":115,"x_max":650,"o":"m 650 0 l 436 336 l 645 660 l 541 660 l 384 418 l 230 660 l 126 660 l 332 336 l 115 0 l 220 0 l 383 255 l 545 0 l 650 0 z "},"y":{"ha":764,"x_min":98,"x_max":660,"o":"m 550 660 q 527 568 543 623 q 488 446 510 513 q 440 306 466 380 q 385 159 413 233 q 326 297 356 228 q 269 432 295 367 q 222 556 242 498 q 196 660 203 613 l 98 660 q 134 529 108 603 q 196 373 161 455 q 268 204 230 291 q 337 35 306 117 l 338 35 l 297 -65 q 251 -141 279 -115 q 181 -168 222 -168 q 168 -168 175 -168 q 154 -166 161 -168 l 138 -242 q 190 -247 162 -247 q 306 -209 258 -247 q 382 -94 353 -172 q 466 109 422 0 q 548 322 509 218 q 616 515 587 426 q 660 660 646 604 l 550 660 z "},"z":{"ha":764,"x_min":131,"x_max":633,"o":"m 626 76 l 626 81 l 234 81 l 622 579 l 622 660 l 146 660 l 146 579 l 520 579 l 131 81 l 131 0 l 633 0 q 627 37 627 17 q 626 76 626 57 z "},"{":{"ha":764,"x_min":197,"x_max":566,"o":"m 566 826 l 566 903 q 546 904 557 904 q 527 904 536 904 q 439 894 480 904 q 367 863 397 884 q 319 810 337 843 q 301 734 301 778 q 308 678 301 704 q 325 625 316 652 q 340 569 333 598 q 347 505 347 541 q 343 462 347 484 q 322 422 338 440 q 277 394 307 405 q 197 382 248 382 l 197 289 q 278 278 248 289 q 323 248 308 266 q 343 207 339 229 q 347 166 347 185 q 340 103 347 128 q 325 55 333 78 q 308 9 316 32 q 301 -46 301 -14 q 319 -130 301 -95 q 368 -187 337 -164 q 441 -222 399 -211 q 530 -233 483 -233 q 548 -233 539 -233 q 566 -231 557 -233 l 566 -155 q 525 -159 545 -159 q 440 -136 476 -159 q 404 -58 404 -113 q 411 -9 404 -32 q 427 39 418 14 q 442 95 435 65 q 449 163 449 125 q 443 222 449 193 q 424 275 438 251 q 387 315 410 299 q 330 338 363 332 q 422 395 395 350 q 449 502 449 440 q 442 571 449 538 q 427 634 435 604 q 411 691 418 664 q 404 741 404 718 q 438 811 404 792 q 520 830 472 830 q 566 826 542 830 z "},"|":{"ha":764,"x_min":329,"x_max":434,"o":"m 329 903 l 329 -231 l 434 -231 l 434 903 l 329 903 z "},"}":{"ha":764,"x_min":198,"x_max":567,"o":"m 198 826 q 244 830 222 830 q 326 811 292 830 q 360 741 360 792 q 353 691 360 718 q 337 634 346 664 q 322 571 329 604 q 315 502 315 538 q 342 395 315 440 q 434 338 369 350 q 377 315 400 332 q 340 275 354 299 q 321 222 326 251 q 315 163 315 193 q 322 95 315 125 q 337 39 329 65 q 353 -9 346 14 q 360 -58 360 -32 q 324 -136 360 -113 q 238 -159 288 -159 q 198 -155 219 -159 l 198 -231 q 216 -233 207 -233 q 234 -233 225 -233 q 323 -222 281 -233 q 396 -187 365 -211 q 445 -130 427 -164 q 463 -46 463 -95 q 456 9 463 -14 q 440 55 449 32 q 424 103 432 78 q 417 166 417 128 q 421 207 417 185 q 440 248 425 229 q 486 278 456 266 q 567 289 516 289 l 567 382 q 487 394 516 382 q 442 422 457 405 q 421 462 426 440 q 417 505 417 484 q 424 569 417 541 q 440 625 432 598 q 456 678 449 652 q 463 734 463 704 q 445 810 463 778 q 397 863 427 843 q 326 894 367 884 q 237 904 285 904 q 218 904 228 904 q 198 903 207 904 l 198 826 z "},"~":{"ha":764,"x_min":88,"x_max":677,"o":"m 272 469 q 168 432 214 469 q 88 329 122 396 l 155 279 q 269 376 207 376 q 319 358 297 376 q 365 319 341 340 q 419 280 389 297 q 492 262 449 262 q 557 275 528 262 q 609 308 586 288 q 649 354 632 329 q 677 402 666 378 l 609 450 q 557 381 586 409 q 495 354 529 354 q 446 372 468 354 q 401 411 425 390 q 347 451 377 433 q 272 469 317 469 z "}}}
